<svg width="56" height="56" viewBox="0 0 56 56" fill="none" xmlns="http://www.w3.org/2000/svg">
<rect width="56" height="56" rx="8" fill="url(#paint0_linear_338_87)"/>
<path d="M31.84 24.16C31.84 23.9068 31.9151 23.6594 32.0557 23.4489C32.1964 23.2384 32.3963 23.0743 32.6302 22.9774C32.864 22.8805 33.1214 22.8552 33.3697 22.9046C33.618 22.954 33.8461 23.0759 34.0251 23.2549C34.2041 23.4339 34.326 23.662 34.3754 23.9103C34.4248 24.1586 34.3994 24.4159 34.3026 24.6498C34.2057 24.8837 34.0416 25.0836 33.8311 25.2243C33.6206 25.3649 33.3732 25.44 33.12 25.44C32.7805 25.44 32.4549 25.3051 32.2149 25.0651C31.9749 24.825 31.84 24.4995 31.84 24.16ZM38.88 17.76V38.24C38.88 38.4097 38.8126 38.5725 38.6925 38.6925C38.5725 38.8126 38.4097 38.88 38.24 38.88H17.76C17.5903 38.88 17.4275 38.8126 17.3074 38.6925C17.1874 38.5725 17.12 38.4097 17.12 38.24V17.76C17.12 17.5903 17.1874 17.4275 17.3074 17.3074C17.4275 17.1874 17.5903 17.12 17.76 17.12H38.24C38.4097 17.12 38.5725 17.1874 38.6925 17.3074C38.8126 17.4275 38.88 17.5903 38.88 17.76ZM18.4 18.4V23.2717L28 31.84L31.84 28L37.6 33.376V18.4H18.4Z" fill="#080B10"/>
<defs>
<linearGradient id="paint0_linear_338_87" x1="-14.2838" y1="-12.994" x2="84.1144" y2="-4.39024" gradientUnits="userSpaceOnUse">
<stop stop-color="#D0FE89"/>
<stop offset="0.730534" stop-color="#95E50A"/>
<stop offset="0.873568" stop-color="#D6FB9D"/>
</linearGradient>
</defs>
</svg>
