<svg width="56" height="56" viewBox="0 0 56 56" fill="none" xmlns="http://www.w3.org/2000/svg">
<rect width="56" height="56" rx="8" fill="url(#paint0_linear_338_76)"/>
<path fill-rule="evenodd" clip-rule="evenodd" d="M14.019 22.594C14.02 21.968 14.022 21.351 14.023 20.965C14.037 19.435 15.358 18.009 16.986 17.984C18.665 17.968 37.371 17.978 39.044 17.984C40.578 17.998 42 19.319 42.025 20.947C42.033 21.75 42.038 23.554 42.041 24.358C42.041 24.358 42.015 32.382 42.006 35C41.993 36.531 40.651 37.96 39.025 37.985C31.684 38.054 24.342 38.008 17 37.985C15.47 37.971 14.048 36.65 14.023 35.022C13.994 31.88 13.997 25.737 14.007 22.594H14.019Z" fill="#080B10"/>
<path fill-rule="evenodd" clip-rule="evenodd" d="M42.037 24.334C42.039 24.735 42.04 25.099 42.041 25.358L42.037 26.57L33.446 30.866C33.431 30.871 33.416 30.875 33.402 30.88C33.335 30.91 33.265 30.933 33.193 30.949C33.115 30.97 33.043 30.98 32.939 30.971H23C22.771 30.945 22.77 30.944 22.553 30.866L14.001 26.59C14.002 25.782 14.003 25.024 14.005 24.356L23.236 28.972H24.999C25 28.714 25 28.457 25 28.199C25.007 27.046 26.001 25.995 27.202 25.972C27.734 25.969 28.265 25.969 28.797 25.972C29.941 25.994 30.976 26.973 30.999 28.174C31.001 28.44 31.002 28.706 31.002 28.972H32.763L42.037 24.334Z" fill="#575F6C"/>
<path fill-rule="evenodd" clip-rule="evenodd" d="M14.005 24.375C14.003 25.043 13.997 25.737 14.007 22.594H14.019C14.02 21.968 14.022 21.351 14.023 20.965C14.037 19.435 15.358 18.009 16.986 17.984C18.665 17.968 37.371 17.978 39.044 17.984C40.578 17.998 42 19.319 42.025 20.947C42.033 21.75 42.038 23.554 42.041 24.358L42.04 24.919C42.039 24.745 42.038 24.554 42.037 24.353L32.763 28.99H23.236L14.005 24.375Z" fill="#080B10"/>
<path fill-rule="evenodd" clip-rule="evenodd" d="M22 17.187C22 17.125 22 17.063 22.001 17.001C22.015 15.457 23.347 14.036 24.981 14.021C26.993 14.014 29.006 14.014 31.018 14.021C32.562 14.035 33.993 15.358 33.999 17.019V18.003H34V19.974H33.999V21.02C33.974 21.792 32.93 22.327 32.314 21.748C32.146 21.591 32.036 21.373 32.007 21.145C32 21.089 32.001 21.075 31.999 21.02V21.016H32V20.429C32.001 20.276 32.001 20.123 32.002 19.969H32V17.996H32.008C32.007 17.695 32.004 17.393 32 17.092V17.016H31.999V17C31.987 16.486 31.54 16.025 31.006 16.02C28.997 16.014 26.988 15.989 24.98 16.021C24.467 16.032 24.005 16.474 24 17.014V17.016V21.016V21.02C24 21.02 23.942 21.606 23.536 21.864C22.979 22.217 22.097 21.847 22.008 21.145C22.001 21.089 22.002 21.075 22 21.02C22 20.685 22 20.351 22 20.016V17.187Z" fill="#575F6C"/>
<path fill-rule="evenodd" clip-rule="evenodd" d="M32.999 21.99V19.974H33V18.003H32.999V17.019C32.993 15.358 31.562 14.036 30.018 14.021C29.179 14.019 28.339 14.017 27.499 14.017C27.933 14.016 28.367 14.016 28.801 14.017H28.888H29.21H29.348L29.622 14.018H29.776L30.04 14.019H30.193L30.474 14.02H30.607L31.018 14.021C32.562 14.036 33.993 15.358 33.999 17.019V18.003H34V19.974H33.999V21.02C33.982 21.542 33.5 21.956 32.999 21.99Z" fill="#575F6C"/>
<path fill-rule="evenodd" clip-rule="evenodd" d="M25 27.322V27.199C25.007 26.046 26.001 24.995 27.202 24.972C27.734 24.969 28.265 24.969 28.797 24.972C29.941 24.994 30.976 25.973 30.999 27.174L31 27.37V29.971C30.999 30.229 30.999 30.486 30.999 30.743C30.992 31.889 30.017 32.947 28.797 32.971C28.016 32.976 27.194 33.083 26.515 32.853C25.651 32.561 25.018 31.703 25 30.769V30.733V27.322Z" fill="#57565C"/>
<path fill-rule="evenodd" clip-rule="evenodd" d="M29.036 28.832C29.038 28.295 29.035 27.759 29.018 27.223C29.013 27.105 28.909 27.004 28.791 27.002C28.278 26.998 27.765 27.002 27.253 27.002C27.129 27.002 27.021 27.107 27.019 27.229C27.015 27.773 27.007 28.318 27.003 28.862C27.019 28.969 27.019 29.078 27.001 29.184C26.999 29.716 27.002 30.248 27.019 30.78C27.024 30.897 27.128 30.999 27.246 31.001C27.763 31.004 28.28 31.017 28.797 31.001C28.915 30.995 29.016 30.892 29.018 30.773C29.022 30.206 29.031 29.639 29.035 29.072C29.025 28.992 29.025 28.912 29.036 28.832Z" fill="#243133"/>
<defs>
<linearGradient id="paint0_linear_338_76" x1="-14.2838" y1="-12.994" x2="84.1144" y2="-4.39024" gradientUnits="userSpaceOnUse">
<stop stop-color="#D0FE89"/>
<stop offset="0.730534" stop-color="#95E50A"/>
<stop offset="0.873568" stop-color="#D6FB9D"/>
</linearGradient>
</defs>
</svg>
