<svg width="56" height="56" viewBox="0 0 56 56" fill="none" xmlns="http://www.w3.org/2000/svg">
<rect width="56" height="56" rx="8" fill="url(#paint0_linear_338_52)"/>
<path d="M13.5 17.5V38.5H42.5V17.5H13.5ZM38 19H40V21H38V19ZM34 19H36V21H34V19ZM30 19H32V21H30V19ZM18 37H16V35H18V37ZM18 21H16V19H18V21ZM22 37H20V35H22V37ZM22 21H20V19H22V21ZM26 37H24V35H26V37ZM26 21H24V19H26V21ZM32 37H30V35H32V37ZM36 37H34V35H36V37ZM40 37H38V35H40V37Z" fill="#57565C"/>
<path d="M41 22.5H29V33.5H41V22.5Z" fill="#222F44"/>
<path d="M27 22.5H15V33.5H27V22.5Z" fill="#222F44"/>
<path d="M29 22.5V33.5H31L38.1665 22.5H29Z" fill="#35474B"/>
<path d="M15 22.5V33.5H17L24.1665 22.5H15Z" fill="#35474B"/>
<path d="M18.084 24.2226L17.0839 25.7227L17.9159 26.2774L18.916 24.7773L18.084 24.2226Z" fill="#080B10"/>
<path d="M20.5842 24.2224L17.5841 28.7225L18.4162 29.2772L21.4162 24.7771L20.5842 24.2224Z" fill="#080B10"/>
<path d="M32.084 24.2226L31.0839 25.7227L31.9159 26.2774L32.916 24.7773L32.084 24.2226Z" fill="#080B10"/>
<path d="M34.5842 24.2224L31.5841 28.7225L32.4162 29.2772L35.4162 24.7771L34.5842 24.2224Z" fill="#080B10"/>
<defs>
<linearGradient id="paint0_linear_338_52" x1="-14.2838" y1="-12.994" x2="84.1144" y2="-4.39024" gradientUnits="userSpaceOnUse">
<stop stop-color="#D0FE89"/>
<stop offset="0.730534" stop-color="#95E50A"/>
<stop offset="0.873568" stop-color="#D6FB9D"/>
</linearGradient>
</defs>
</svg>
