<svg width="56" height="56" viewBox="0 0 56 56" fill="none" xmlns="http://www.w3.org/2000/svg">
<rect width="56" height="56" rx="8" fill="#080B10"/>
<path d="M37.9999 17H17.9999C17.3433 17 16.6932 17.1293 16.0865 17.3806C15.4799 17.6319 14.9287 18.0002 14.4644 18.4645C13.5267 19.4021 12.9999 20.6739 12.9999 22V32.79C12.9847 33.8288 13.2829 34.8481 13.8554 35.715C14.428 36.582 15.2485 37.2562 16.2099 37.65C17.1165 38.0165 18.1132 38.0979 19.0673 37.8836C20.0213 37.6692 20.8873 37.1691 21.5499 36.45L25.7799 32H30.2199L34.4499 36.45C35.1117 37.1703 35.9778 37.6712 36.9322 37.8857C37.8865 38.1001 38.8836 38.0179 39.7899 37.65C40.7514 37.2562 41.5719 36.582 42.1445 35.715C42.717 34.8481 43.0152 33.8288 42.9999 32.79V22C42.9999 20.6739 42.4732 19.4021 41.5355 18.4645C40.5978 17.5268 39.326 17 37.9999 17ZM23.9999 26H21.9999V28C21.9999 28.2652 21.8946 28.5196 21.7071 28.7071C21.5195 28.8946 21.2652 29 20.9999 29C20.7347 29 20.4804 28.8946 20.2928 28.7071C20.1053 28.5196 19.9999 28.2652 19.9999 28V26H17.9999C17.7347 26 17.4804 25.8946 17.2928 25.7071C17.1053 25.5196 16.9999 25.2652 16.9999 25C16.9999 24.7348 17.1053 24.4804 17.2928 24.2929C17.4804 24.1054 17.7347 24 17.9999 24H19.9999V22C19.9999 21.7348 20.1053 21.4804 20.2928 21.2929C20.4804 21.1054 20.7347 21 20.9999 21C21.2652 21 21.5195 21.1054 21.7071 21.2929C21.8946 21.4804 21.9999 21.7348 21.9999 22V24H23.9999C24.2652 24 24.5195 24.1054 24.7071 24.2929C24.8946 24.4804 24.9999 24.7348 24.9999 25C24.9999 25.2652 24.8946 25.5196 24.7071 25.7071C24.5195 25.8946 24.2652 26 23.9999 26ZM34.9999 29C34.2088 29 33.4355 28.7654 32.7777 28.3259C32.1199 27.8864 31.6072 27.2616 31.3044 26.5307C31.0017 25.7998 30.9225 24.9956 31.0768 24.2196C31.2311 23.4437 31.6121 22.731 32.1715 22.1716C32.7309 21.6122 33.4437 21.2312 34.2196 21.0769C34.9955 20.9225 35.7998 21.0017 36.5307 21.3045C37.2616 21.6072 37.8863 22.1199 38.3258 22.7777C38.7654 23.4355 38.9999 24.2089 38.9999 25C38.9999 26.0609 38.5785 27.0783 37.8284 27.8284C37.0782 28.5786 36.0608 29 34.9999 29ZM36.9999 25C36.9999 25.3956 36.8826 25.7822 36.6629 26.1111C36.4431 26.44 36.1308 26.6964 35.7653 26.8478C35.3999 26.9991 34.9977 27.0387 34.6098 26.9616C34.2218 26.8844 33.8654 26.6939 33.5857 26.4142C33.306 26.1345 33.1155 25.7781 33.0384 25.3902C32.9612 25.0022 33.0008 24.6001 33.1522 24.2346C33.3036 23.8692 33.5599 23.5568 33.8888 23.3371C34.2177 23.1173 34.6044 23 34.9999 23C35.5304 23 36.0391 23.2107 36.4142 23.5858C36.7892 23.9609 36.9999 24.4696 36.9999 25Z" fill="url(#paint0_linear_338_35)"/>
<defs>
<linearGradient id="paint0_linear_338_35" x1="5.34708" y1="12.1267" x2="57.6494" y2="18.6593" gradientUnits="userSpaceOnUse">
<stop stop-color="#D0FE89"/>
<stop offset="0.730534" stop-color="#95E50A"/>
<stop offset="0.873568" stop-color="#D6FB9D"/>
</linearGradient>
</defs>
</svg>
