<svg width="56" height="56" viewBox="0 0 56 56" fill="none" xmlns="http://www.w3.org/2000/svg">
<rect width="56" height="56" rx="8" fill="url(#paint0_linear_338_47)"/>
<path d="M39.7867 18.1467C39.1057 17.4653 38.2971 16.9249 37.4071 16.5561C36.5172 16.1874 35.5633 15.9976 34.6 15.9976C33.6367 15.9976 32.6828 16.1874 31.7929 16.5561C30.9029 16.9249 30.0943 17.4653 29.4133 18.1467L28 19.56L26.5867 18.1467C25.2111 16.7711 23.3454 15.9983 21.4 15.9983C19.4546 15.9983 17.5889 16.7711 16.2133 18.1467C14.8377 19.5223 14.0649 21.388 14.0649 23.3333C14.0649 25.2787 14.8377 27.1444 16.2133 28.52L17.6267 29.9333L28 40.3067L38.3733 29.9333L39.7867 28.52C40.468 27.839 41.0085 27.0304 41.3772 26.1405C41.746 25.2505 41.9358 24.2966 41.9358 23.3333C41.9358 22.37 41.746 21.4161 41.3772 20.5262C41.0085 19.6362 40.468 18.8277 39.7867 18.1467V18.1467Z" fill="#080B10"/>
<path d="M32.715 22.45V21.74H34.625V19.92H35.375V21.74H37.285V22.45H35.375V24.28H34.625V22.45H32.715Z" fill="white"/>
<defs>
<linearGradient id="paint0_linear_338_47" x1="-14.2838" y1="-12.994" x2="84.1144" y2="-4.39024" gradientUnits="userSpaceOnUse">
<stop stop-color="#D0FE89"/>
<stop offset="0.730534" stop-color="#95E50A"/>
<stop offset="0.873568" stop-color="#D6FB9D"/>
</linearGradient>
</defs>
</svg>
