<svg width="32" height="32" viewBox="0 0 32 32" fill="none" xmlns="http://www.w3.org/2000/svg">
<path fill-rule="evenodd" clip-rule="evenodd" d="M29.3333 22.2476L29.3333 9.75237C29.3333 5.39682 26.2505 2.66666 21.8864 2.66666L10.1135 2.66666C5.74942 2.66666 2.66665 5.38412 2.66665 9.75237L2.66665 22.2476C2.66665 26.6159 5.74942 29.3333 10.1135 29.3333L21.8864 29.3333C26.2505 29.3333 29.3333 26.6159 29.3333 22.2476Z" fill="url(#paint0_linear_338_99)"/>
<path d="M13.3134 11.9999L9.00002 11.9999" stroke="url(#paint1_linear_338_99)" stroke-width="1.5" stroke-linecap="round" stroke-linejoin="round"/>
<path d="M18.6467 15.9999L9.50006 15.9999" stroke="url(#paint2_linear_338_99)" stroke-width="1.5" stroke-linecap="round" stroke-linejoin="round"/>
<path d="M22.6467 19.9999L9.12273 19.9999" stroke="url(#paint3_linear_338_99)" stroke-width="1.5" stroke-linecap="round" stroke-linejoin="round"/>
<defs>
<linearGradient id="paint0_linear_338_99" x1="35.5209" y1="-4.13515" x2="31.4239" y2="42.7211" gradientUnits="userSpaceOnUse">
<stop stop-color="#D0FE89"/>
<stop offset="0.730534" stop-color="#95E50A"/>
<stop offset="0.873568" stop-color="#D6FB9D"/>
</linearGradient>
<linearGradient id="paint1_linear_338_99" x1="14.3642" y1="11.7382" x2="14.2721" y2="13.3089" gradientUnits="userSpaceOnUse">
<stop offset="0.205718" stop-color="#283234"/>
<stop offset="0.593631" stop-color="#243133"/>
<stop offset="1" stop-color="#080B10"/>
</linearGradient>
<linearGradient id="paint2_linear_338_99" x1="20.8751" y1="15.7382" x2="20.8316" y2="17.3131" gradientUnits="userSpaceOnUse">
<stop offset="0.205718" stop-color="#283234"/>
<stop offset="0.593631" stop-color="#243133"/>
<stop offset="1" stop-color="#080B10"/>
</linearGradient>
<linearGradient id="paint3_linear_338_99" x1="25.9416" y1="19.7382" x2="25.9121" y2="21.3138" gradientUnits="userSpaceOnUse">
<stop offset="0.205718" stop-color="#283234"/>
<stop offset="0.593631" stop-color="#243133"/>
<stop offset="1" stop-color="#080B10"/>
</linearGradient>
</defs>
</svg>
