<svg width="56" height="56" viewBox="0 0 56 56" fill="none" xmlns="http://www.w3.org/2000/svg">
<rect width="56" height="56" rx="8" fill="url(#paint0_linear_338_31)"/>
<path d="M28.005 29.575C29.875 29.575 31.715 26.535 31.715 23.44C31.715 20.21 29.695 19.53 28.005 19.53C26.305 19.53 24.295 20.21 24.295 23.44C24.295 26.535 26.13 29.575 28.005 29.575ZM34.225 31.88C33.445 31.64 32.53 31.25 31.52 30.72C31.04 30.46 30.53 30.175 30.015 29.865C29.415 30.33 28.735 30.605 28.005 30.605C27.275 30.605 26.595 30.33 25.99 29.865C25.59 30.11 25.07 30.415 24.48 30.72C24.205 30.865 23.94 30.995 23.69 31.115C22.985 31.45 22.35 31.705 21.78 31.88C19.71 32.525 19.185 35.295 19.06 36.465H36.945C36.815 35.3 36.3 32.53 34.225 31.88ZM37.455 29.11C37.835 29.11 38.205 28.935 38.545 28.635C38.56 28.625 38.57 28.61 38.585 28.6C39.44 27.815 40.095 26.245 40.095 24.65C40.095 22.34 38.655 21.855 37.45 21.855C36.24 21.855 34.8 22.34 34.8 24.65C34.8 26.25 35.465 27.83 36.325 28.61C36.685 28.92 37.07 29.11 37.455 29.11ZM42.08 31.09C41.5 30.915 40.835 30.63 40.03 30.215C39.62 30 39.255 29.785 38.97 29.615C38.515 29.945 38 30.145 37.46 30.145C36.91 30.145 36.4 29.95 35.945 29.615C35.59 29.83 35.235 30.035 34.885 30.215C34.545 30.395 34.22 30.55 33.92 30.68C34.135 30.765 34.34 30.83 34.535 30.89C36.215 31.415 37.085 32.895 37.535 34.265H44C43.885 33.35 43.475 31.53 42.08 31.09ZM17.455 28.63C17.795 28.93 18.17 29.105 18.545 29.105C18.93 29.105 19.31 28.925 19.66 28.615C19.67 28.605 19.675 28.6 19.68 28.595C20.54 27.81 21.195 26.24 21.195 24.645C21.195 22.335 19.755 21.85 18.545 21.85C17.34 21.85 15.9 22.335 15.9 24.645C15.9 26.235 16.55 27.805 17.405 28.59C17.425 28.605 17.44 28.615 17.455 28.63ZM21.475 30.895C21.67 30.84 21.88 30.765 22.09 30.685C21.79 30.55 21.47 30.395 21.12 30.22C20.71 30.01 20.35 29.795 20.06 29.62C19.605 29.95 19.095 30.15 18.55 30.15C18.005 30.15 17.495 29.955 17.04 29.62C16.77 29.785 16.405 30 15.975 30.22C15.185 30.635 14.51 30.92 13.935 31.095C12.53 31.53 12.12 33.35 12 34.27H18.47C18.92 32.895 19.79 31.415 21.475 30.895Z" fill="#080B10"/>
<defs>
<linearGradient id="paint0_linear_338_31" x1="-14.2838" y1="-12.994" x2="84.1144" y2="-4.39024" gradientUnits="userSpaceOnUse">
<stop stop-color="#D0FE89"/>
<stop offset="0.730534" stop-color="#95E50A"/>
<stop offset="0.873568" stop-color="#D6FB9D"/>
</linearGradient>
</defs>
</svg>
